<?xml version="1.0" encoding="utf-8"?>
<!-- Generator: Adobe Illustrator 26.3.1, SVG Export Plug-In . SVG Version: 6.00 Build 0)  -->
<svg version="1.1" id="Layer_1" xmlns="http://www.w3.org/2000/svg" xmlns:xlink="http://www.w3.org/1999/xlink" x="0px" y="0px"
	 viewBox="0 0 1550.7 581.2" style="enable-background:new 0 0 1550.7 581.2;" xml:space="preserve">
<style type="text/css">
	.st0{fill:none;stroke:#FF0000;stroke-width:1.000000e-03;stroke-linecap:round;stroke-miterlimit:11.3386;}
	
		.st1{fill-rule:evenodd;clip-rule:evenodd;fill:none;stroke:#777777;stroke-width:1.000000e-03;stroke-linecap:round;stroke-miterlimit:11.3386;}
</style>
<g id="svgGroup">
	<path id="front_outsideCutPath" vector-effect="non-scaling-stroke" class="st0" d="M59.9,581.2v-5.7h56v5.7l0,0h56l0,0v-5.7h56
		v5.7l0,0h56l0,0v-5.7h56v5.7l0,0h56l0,0v-5.7h56v5.7l0,0h56l0,0v-5.7h56v5.7l0,0h59.9l0,0v-34.1l0,0H618v-56h5.7l0,0v-56l0,0H618
		v-56h5.7l0,0V345l0,0h-59.9l0,0v5.7h-56V345l0,0h-56l0,0v5.7h-56V345l0,0h-56l0,0v5.7h-56V345l0,0h-56l0,0v5.7h-56V345l0,0h-56l0,0
		v5.7h-56V345l0,0H0l0,0v34.1l0,0h5.7v56H0l0,0v56l0,0h5.7v56H0l0,0v34.1l0,0L59.9,581.2L59.9,581.2z"/>
	<path id="left_outsideCutPath" vector-effect="non-scaling-stroke" class="st0" d="M691.4,581.2v-5.7h56v5.7l0,0h56l0,0v-5.7h56
		v5.7l0,0h53.5l0,0v-34.1h5.7l0,0v-56l0,0h-5.7v-56h5.7l0,0v-56l0,0h-5.7V345l0,0h-53.5l0,0v5.7h-56V345l0,0h-56l0,0v5.7h-56V345
		l0,0h-53.5l0,0v34.1h-5.7l0,0v56l0,0h5.7v56h-5.7l0,0v56l0,0h5.7v34.1l0,0L691.4,581.2L691.4,581.2z"/>
	<path id="top_outsideCutPath" vector-effect="non-scaling-stroke" class="st0" d="M1042.9,581.2v-5.7h56v5.7l0,0h56l0,0v-5.7h56
		v5.7l0,0h56l0,0v-5.7h56v5.7l0,0h56l0,0v-5.7h56v5.7l0,0h56l0,0v-5.7h54.2l0,0V522h5.7l0,0v-56l0,0h-5.7v-56h5.7l0,0v-56l0,0h-5.7
		v-53.5l0,0h-54.2v-5.7l0,0h-56l0,0v5.7h-56v-5.7l0,0h-56l0,0v5.7h-56v-5.7l0,0h-56l0,0v5.7h-56v-5.7l0,0h-56l0,0v5.7h-56v-5.7l0,0
		h-56l0,0v5.7h-54.2l0,0V354H927l0,0v56l0,0h5.7v56H927l0,0v56l0,0h5.7v53.5l0,0h54.2v5.7l0,0L1042.9,581.2L1042.9,581.2z"/>
	<path id="back_outsideCutPath" vector-effect="non-scaling-stroke" class="st0" d="M59.9,336.5v-5.7h56v5.7l0,0h56l0,0v-5.7h56v5.7
		l0,0h56l0,0v-5.7h56v5.7l0,0h56l0,0v-5.7h56v5.7l0,0h56l0,0v-5.7h56v5.7l0,0h59.9l0,0v-34.1l0,0H618v-56h5.7l0,0v-56l0,0H618v-56
		h5.7l0,0v-34.1l0,0h-59.9l0,0v5.7h-56v-5.7l0,0h-56l0,0v5.7h-56v-5.7l0,0h-56l0,0v5.7h-56v-5.7l0,0h-56l0,0v5.7h-56v-5.7l0,0h-56
		l0,0v5.7h-56v-5.7l0,0H0l0,0v34.1l0,0h5.7v56H0l0,0v56l0,0h5.7v56H0l0,0v34.1l0,0L59.9,336.5L59.9,336.5z"/>
	<path id="right_outsideCutPath" vector-effect="non-scaling-stroke" class="st0" d="M691.4,336.5v-5.7h56v5.7l0,0h56l0,0v-5.7h56
		v5.7l0,0h53.5l0,0v-34.1h5.7l0,0v-56l0,0h-5.7v-56h5.7l0,0v-56l0,0h-5.7v-34.1l0,0h-53.5l0,0v5.7h-56v-5.7l0,0h-56l0,0v5.7h-56
		v-5.7l0,0h-53.5l0,0v34.1h-5.7l0,0v56l0,0h5.7v56h-5.7l0,0v56l0,0h5.7v34.1l0,0L691.4,336.5L691.4,336.5z"/>
	<path id="bottom_outsideCutPath" vector-effect="non-scaling-stroke" class="st0" d="M1042.9,286.3v-5.7h56v5.7l0,0h56l0,0v-5.7h56
		v5.7l0,0h56l0,0v-5.7h56v5.7l0,0h56l0,0v-5.7h56v5.7l0,0h56l0,0v-5.7h54.2l0,0v-53.5h5.7l0,0v-56l0,0h-5.7v-56h5.7l0,0v-56l0,0
		h-5.7V5.7l0,0h-54.2V0l0,0h-56l0,0v5.7h-56V0l0,0h-56l0,0v5.7h-56V0l0,0h-56l0,0v5.7h-56V0l0,0h-56l0,0v5.7h-56V0l0,0h-56l0,0v5.7
		h-54.2l0,0v53.5H927l0,0v56l0,0h5.7v56H927l0,0v56l0,0h5.7v53.5l0,0h54.2v5.7l0,0L1042.9,286.3L1042.9,286.3z"/>
	<circle class="st1" cx="774.9" cy="241" r="45.3"/>
	<polygon class="st1" points="1222.9,423.6 1084.6,423.6 1084.2,336.4 1222.3,336.4 	"/>
	<rect x="1266.8" y="423.6" class="st1" width="139" height="131.4"/>
</g>
</svg>
